<?xml version="1.0" encoding="utf-8"?>
<!-- Generator: Adobe Illustrator 28.2.0, SVG Export Plug-In . SVG Version: 6.00 Build 0)  -->
<svg version="1.1" id="Layer_1" xmlns="http://www.w3.org/2000/svg" xmlns:xlink="http://www.w3.org/1999/xlink" x="0px" y="0px"
	 viewBox="0 0 168 48" style="enable-background:new 0 0 168 48;" xml:space="preserve">
<style type="text/css">
	.st0{fill:#FFFFFF;}
	.st1{fill:url(#SVGID_1_);}
	.st2{fill:#F62D2D;}
	.st3{clip-path:url(#SVGID_00000002380830840420000820000000843322505280683659_);}
</style>
<path class="st0" d="M10.5,0h28.8c5.3,0,9.6,4.3,9.6,9.6v28.8c0,5.3-4.3,9.6-9.6,9.6H10.5c-5.3,0-9.6-4.3-9.6-9.6V9.6
	C0.9,4.3,5.2,0,10.5,0z"/>
<linearGradient id="SVGID_1_" gradientUnits="userSpaceOnUse" x1="15.875" y1="20.4491" x2="33.875" y2="20.4491">
	<stop  offset="0" style="stop-color:#354D65"/>
	<stop  offset="1" style="stop-color:#203153"/>
</linearGradient>
<path class="st1" d="M33.9,23.6c0,1.4-0.2,2.6-0.7,3.8c-0.5,1.1-1.1,2.1-1.9,2.9c-0.8,0.8-1.8,1.4-2.9,1.9c-1.1,0.5-2.3,0.7-3.5,0.7
	c-1.2,0-2.4-0.2-3.5-0.7c-1.1-0.5-2-1.1-2.9-1.9c-0.8-0.8-1.5-1.8-1.9-2.9c-0.5-1.1-0.7-2.4-0.7-3.7V8h4.5v8.2
	c0.2-0.3,0.5-0.6,0.9-0.8c0.3-0.3,0.7-0.4,1.1-0.6c0.4-0.2,0.8-0.3,1.2-0.3c0.4-0.1,0.8-0.1,1.3-0.1c1.3,0,2.4,0.2,3.5,0.7
	c1.1,0.5,2,1.1,2.9,1.9c0.8,0.8,1.5,1.8,1.9,3C33.7,21.1,33.9,22.3,33.9,23.6z M29.4,23.6c0-0.7-0.1-1.3-0.3-1.9
	c-0.2-0.6-0.5-1.1-1-1.5c-0.4-0.4-0.9-0.7-1.4-1c-0.5-0.2-1.1-0.4-1.7-0.4c-0.6,0-1.2,0.1-1.7,0.4c-0.5,0.3-1,0.6-1.4,1.1
	c-0.4,0.4-0.7,1-1,1.5c-0.2,0.6-0.3,1.2-0.3,1.8c0,0.7,0.1,1.3,0.3,1.9c0.2,0.6,0.5,1.1,1,1.5c0.4,0.4,0.9,0.7,1.4,1
	c0.5,0.2,1.1,0.4,1.7,0.4c0.6,0,1.2-0.1,1.7-0.4c0.5-0.2,1-0.6,1.4-1c0.4-0.4,0.7-0.9,1-1.5S29.4,24.3,29.4,23.6z"/>
<path class="st2" d="M33.7,34.7H15.9v4.6h17.8V34.7z"/>
<g>
	<defs>
		<rect id="SVGID_00000044883410224046756620000009815266002509947582_" x="56.9" y="4" width="109.2" height="40"/>
	</defs>
	<clipPath id="SVGID_00000127731749472529801680000012476995480824737678_">
		<use xlink:href="#SVGID_00000044883410224046756620000009815266002509947582_"  style="overflow:visible;"/>
	</clipPath>
	<g style="clip-path:url(#SVGID_00000127731749472529801680000012476995480824737678_);">
		<path class="st0" d="M74.1,35.6h-1l-1.6-2.3c-0.4,0.4-0.8,0.7-1.3,1c-0.4,0.3-0.9,0.6-1.4,0.8c-0.5,0.2-1,0.4-1.5,0.6
			c-0.5,0.1-1,0.2-1.6,0.2c-1.2,0-2.2-0.2-3.3-0.7c-1-0.4-1.9-1-2.7-1.8c-0.8-0.8-1.4-1.7-1.8-2.8c-0.4-1.1-0.7-2.2-0.7-3.5
			s0.2-2.4,0.7-3.5c0.4-1.1,1-2,1.8-2.8c0.8-0.8,1.6-1.4,2.7-1.8c1-0.4,2.1-0.7,3.3-0.7c0.4,0,0.7,0,1.2,0.1
			c0.4,0.1,0.8,0.2,1.2,0.3c0.4,0.1,0.7,0.3,1,0.6c0.3,0.2,0.6,0.5,0.8,0.8v-7.7h4.2L74.1,35.6L74.1,35.6z M69.9,27.2
			c0-0.6-0.1-1.1-0.3-1.7c-0.2-0.5-0.5-1-0.9-1.4c-0.4-0.4-0.8-0.7-1.3-1c-0.5-0.3-1-0.4-1.6-0.4c-0.6,0-1.1,0.1-1.6,0.3
			c-0.5,0.2-0.9,0.5-1.3,0.9c-0.4,0.4-0.7,0.9-0.9,1.4c-0.2,0.6-0.3,1.2-0.3,1.9c0,0.6,0.1,1.2,0.3,1.7c0.2,0.5,0.5,1,0.9,1.4
			c0.4,0.4,0.8,0.7,1.3,1c0.5,0.2,1,0.4,1.6,0.4c0.6,0,1.1-0.1,1.6-0.4c0.5-0.3,0.9-0.6,1.3-1c0.4-0.4,0.7-0.9,0.9-1.4
			C69.8,28.4,69.9,27.8,69.9,27.2z"/>
		<path class="st0" d="M82.2,14.7c0,0.4-0.1,0.7-0.2,1.1c-0.1,0.3-0.3,0.6-0.6,0.9c-0.3,0.3-0.6,0.4-0.9,0.6
			c-0.3,0.1-0.7,0.2-1.1,0.2c-0.4,0-0.7-0.1-1.1-0.2c-0.3-0.1-0.6-0.3-0.9-0.6c-0.3-0.3-0.4-0.6-0.6-0.9c-0.1-0.3-0.2-0.7-0.2-1.1
			c0-0.4,0.1-0.7,0.2-1.1c0.1-0.3,0.3-0.6,0.6-0.9s0.6-0.4,0.9-0.6c0.3-0.1,0.7-0.2,1.1-0.2c0.4,0,0.7,0.1,1.1,0.2
			c0.3,0.1,0.6,0.3,0.9,0.6c0.3,0.3,0.4,0.6,0.6,0.9C82.2,14,82.2,14.3,82.2,14.7z M81.5,35.6h-4.2V19.2h4.2V35.6z"/>
		<path class="st0" d="M93.8,35.6h-9.6v-4.2h9.6c0.3,0,0.5-0.1,0.7-0.3c0.2-0.2,0.3-0.4,0.3-0.7c0-0.3-0.1-0.5-0.3-0.6
			c-0.2-0.1-0.4-0.1-0.7-0.1h-4.4c-0.7,0-1.4-0.1-2.1-0.4c-0.6-0.3-1.2-0.7-1.7-1.1c-0.5-0.5-0.8-1-1.1-1.7s-0.4-1.3-0.4-2.1
			s0.1-1.4,0.4-2.1s0.6-1.2,1.1-1.7c0.5-0.5,1-0.8,1.7-1.1c0.6-0.3,1.3-0.4,2.1-0.4h8.5v4.2h-8.5c-0.3,0-0.5,0.1-0.7,0.3
			c-0.2,0.2-0.3,0.4-0.3,0.7s0.1,0.6,0.3,0.8c0.2,0.2,0.4,0.3,0.7,0.3h4.4c0.7,0,1.4,0.1,2,0.4c0.6,0.2,1.2,0.6,1.7,1
			c0.5,0.4,0.9,0.9,1.1,1.6c0.3,0.6,0.4,1.3,0.4,2c0,0.7-0.1,1.4-0.4,2c-0.3,0.6-0.6,1.2-1.1,1.7c-0.5,0.5-1,0.9-1.7,1.1
			C95.1,35.5,94.5,35.6,93.8,35.6z"/>
		<path class="st0" d="M124.2,35.6H120v-23h4.2V35.6z"/>
		<path class="st0" d="M143.3,35.6h-1l-1.6-2.3c-0.4,0.4-0.8,0.7-1.3,1c-0.4,0.3-0.9,0.6-1.4,0.8c-0.5,0.2-1,0.4-1.5,0.6
			c-0.5,0.1-1,0.2-1.6,0.2c-1.2,0-2.2-0.2-3.3-0.6c-1-0.4-1.9-1-2.7-1.7c-0.8-0.7-1.4-1.6-1.8-2.7c-0.4-1.1-0.7-2.3-0.7-3.7
			c0-1.3,0.2-2.5,0.7-3.5c0.4-1.1,1-2,1.8-2.8c0.8-0.8,1.6-1.4,2.7-1.8c1-0.4,2.1-0.6,3.3-0.6c0.5,0,1.1,0.1,1.6,0.2s1,0.3,1.5,0.6
			c0.5,0.2,1,0.5,1.4,0.8c0.4,0.3,0.9,0.7,1.3,1l1.6-1.9h1V35.6z M139.1,27.2c0-0.6-0.1-1.1-0.3-1.7c-0.2-0.5-0.5-1-0.9-1.4
			c-0.4-0.4-0.8-0.7-1.3-1c-0.5-0.3-1-0.4-1.6-0.4c-0.6,0-1.1,0.1-1.6,0.3c-0.5,0.2-0.9,0.5-1.3,0.9c-0.4,0.4-0.7,0.9-0.9,1.4
			c-0.2,0.6-0.3,1.2-0.3,1.9c0,0.7,0.1,1.3,0.3,1.9c0.2,0.6,0.5,1,0.9,1.4c0.4,0.4,0.8,0.7,1.3,0.9c0.5,0.2,1,0.3,1.6,0.3
			c0.6,0,1.1-0.1,1.6-0.4c0.5-0.3,0.9-0.6,1.3-1c0.4-0.4,0.7-0.9,0.9-1.4C139,28.4,139.1,27.8,139.1,27.2z"/>
		<path class="st0" d="M150.5,41.9v-4.2l2.3,0c0.4,0,0.8-0.1,1.2-0.2c0.4-0.1,0.7-0.3,1-0.6c0.3-0.2,0.6-0.5,0.9-0.8
			c0.2-0.3,0.4-0.7,0.6-1c-0.5,0.2-0.9,0.4-1.4,0.6c-0.5,0.2-1,0.3-1.4,0.3c-1,0-2-0.2-2.9-0.5c-0.9-0.4-1.7-0.9-2.4-1.5
			c-0.7-0.7-1.2-1.5-1.6-2.4c-0.4-0.9-0.6-2-0.6-3.2v-9.1h4.2v9.1c0,0.6,0.1,1.1,0.3,1.5c0.2,0.4,0.4,0.8,0.7,1.1
			c0.3,0.3,0.6,0.5,1,0.7c0.4,0.1,0.8,0.2,1.2,0.2c0.4,0,0.8-0.1,1.2-0.3c0.4-0.2,0.7-0.5,1-0.8c0.3-0.3,0.5-0.7,0.7-1.1
			c0.2-0.4,0.3-0.8,0.3-1.3v-9.1h4.2v14.4c0,1.2-0.2,2.2-0.7,3.2c-0.4,1-1,1.9-1.8,2.6c-0.8,0.7-1.6,1.4-2.7,1.8
			c-1,0.4-2.1,0.7-3.2,0.7L150.5,41.9z"/>
		<path class="st0" d="M117.7,27.2c0,1.3-0.2,2.5-0.7,3.5c-0.4,1.1-1,2-1.8,2.7c-0.7,0.8-1.6,1.3-2.7,1.8c-1,0.4-2.1,0.6-3.3,0.6
			c-1.2,0-2.2-0.2-3.3-0.6c-1-0.4-1.9-1-2.7-1.8c-0.8-0.8-1.4-1.7-1.8-2.7c-0.4-1.1-0.7-2.2-0.7-3.5V12.6h4.2v7.7
			c0.2-0.3,0.5-0.5,0.8-0.8c0.3-0.2,0.7-0.4,1-0.6c0.4-0.1,0.8-0.3,1.2-0.3c0.4-0.1,0.8-0.1,1.2-0.1c1.2,0,2.3,0.2,3.3,0.7
			c1,0.4,1.9,1,2.7,1.8c0.7,0.8,1.4,1.7,1.8,2.8C117.5,24.8,117.7,26,117.7,27.2z M113.5,27.2c0-0.6-0.1-1.2-0.3-1.8
			c-0.2-0.6-0.5-1-0.9-1.4c-0.4-0.4-0.8-0.7-1.3-0.9c-0.5-0.2-1-0.3-1.6-0.3c-0.6,0-1.1,0.1-1.6,0.4c-0.5,0.3-0.9,0.6-1.3,1
			c-0.4,0.4-0.7,0.9-0.9,1.4c-0.2,0.5-0.3,1.1-0.3,1.7c0,0.6,0.1,1.2,0.3,1.8c0.2,0.5,0.5,1,0.9,1.4c0.4,0.4,0.8,0.7,1.3,0.9
			c0.5,0.2,1,0.3,1.6,0.3c0.6,0,1.1-0.1,1.6-0.3c0.5-0.2,0.9-0.6,1.3-0.9c0.4-0.4,0.7-0.9,0.9-1.4C113.3,28.5,113.5,27.9,113.5,27.2
			z"/>
	</g>
</g>
</svg>
